<svg width="182" height="27" viewBox="0 0 182 27" fill="none" xmlns="http://www.w3.org/2000/svg">
<path d="M10.376 26.252C8.528 26.252 6.872 25.952 5.408 25.352C3.944 24.752 2.768 23.864 1.88 22.688C1.016 21.512 0.56 20.096 0.512 18.44H7.064C7.16 19.376 7.484 20.096 8.036 20.6C8.588 21.08 9.308 21.32 10.196 21.32C11.108 21.32 11.828 21.116 12.356 20.708C12.884 20.276 13.148 19.688 13.148 18.944C13.148 18.32 12.932 17.804 12.5 17.396C12.092 16.988 11.576 16.652 10.952 16.388C10.352 16.124 9.488 15.824 8.36 15.488C6.728 14.984 5.396 14.48 4.364 13.976C3.332 13.472 2.444 12.728 1.7 11.744C0.956 10.76 0.584 9.476 0.584 7.892C0.584 5.54 1.436 3.704 3.14 2.384C4.844 1.04 7.064 0.368 9.8 0.368C12.584 0.368 14.828 1.04 16.532 2.384C18.236 3.704 19.148 5.552 19.268 7.928H12.608C12.56 7.112 12.26 6.476 11.708 6.02C11.156 5.54 10.448 5.3 9.584 5.3C8.84 5.3 8.24 5.504 7.784 5.912C7.328 6.296 7.1 6.86 7.1 7.604C7.1 8.42 7.484 9.056 8.252 9.512C9.02 9.968 10.22 10.46 11.852 10.988C13.484 11.54 14.804 12.068 15.812 12.572C16.844 13.076 17.732 13.808 18.476 14.768C19.22 15.728 19.592 16.964 19.592 18.476C19.592 19.916 19.22 21.224 18.476 22.4C17.756 23.576 16.7 24.512 15.308 25.208C13.916 25.904 12.272 26.252 10.376 26.252ZM39.1124 21.536H29.6804L28.1684 26H21.7244L30.8684 0.727999H37.9964L47.1404 26H40.6244L39.1124 21.536ZM37.5284 16.784L34.3964 7.532L31.3004 16.784H37.5284ZM56.0794 21.248H64.1434V26H49.9234V0.727999H56.0794V21.248ZM76.2237 26.252C74.3757 26.252 72.7197 25.952 71.2557 25.352C69.7917 24.752 68.6157 23.864 67.7277 22.688C66.8637 21.512 66.4077 20.096 66.3597 18.44H72.9117C73.0077 19.376 73.3317 20.096 73.8837 20.6C74.4357 21.08 75.1557 21.32 76.0437 21.32C76.9557 21.32 77.6757 21.116 78.2037 20.708C78.7317 20.276 78.9957 19.688 78.9957 18.944C78.9957 18.32 78.7797 17.804 78.3477 17.396C77.9397 16.988 77.4237 16.652 76.7997 16.388C76.1997 16.124 75.3357 15.824 74.2077 15.488C72.5757 14.984 71.2437 14.48 70.2117 13.976C69.1797 13.472 68.2917 12.728 67.5477 11.744C66.8037 10.76 66.4317 9.476 66.4317 7.892C66.4317 5.54 67.2837 3.704 68.9877 2.384C70.6917 1.04 72.9117 0.368 75.6477 0.368C78.4317 0.368 80.6757 1.04 82.3797 2.384C84.0837 3.704 84.9957 5.552 85.1157 7.928H78.4557C78.4077 7.112 78.1077 6.476 77.5557 6.02C77.0037 5.54 76.2957 5.3 75.4317 5.3C74.6877 5.3 74.0877 5.504 73.6317 5.912C73.1757 6.296 72.9477 6.86 72.9477 7.604C72.9477 8.42 73.3317 9.056 74.0997 9.512C74.8677 9.968 76.0677 10.46 77.6997 10.988C79.3317 11.54 80.6517 12.068 81.6597 12.572C82.6917 13.076 83.5797 13.808 84.3237 14.768C85.0677 15.728 85.4397 16.964 85.4397 18.476C85.4397 19.916 85.0677 21.224 84.3237 22.4C83.6037 23.576 82.5477 24.512 81.1557 25.208C79.7637 25.904 78.1197 26.252 76.2237 26.252Z" fill="white"/>
<path d="M103.88 26L95.3841 14.84V26H89.2281V0.727999H95.3841V11.816L103.808 0.727999H111.044L101.252 13.112L111.404 26H103.88ZM136.218 0.727999V26H130.062V15.596H120.486V26H114.33V0.727999H120.486V10.628H130.062V0.727999H136.218ZM156.394 21.536H146.962L145.45 26H139.006L148.15 0.727999H155.278L164.422 26H157.906L156.394 21.536ZM154.81 16.784L151.678 7.532L148.582 16.784H154.81ZM173.361 21.248H181.425V26H167.205V0.727999H173.361V21.248Z" fill="#D6C158"/>
</svg>
