<svg width="56" height="35" viewBox="0 0 56 35" fill="none" xmlns="http://www.w3.org/2000/svg">
<path d="M11.9201 34.336C9.68013 34.336 7.66413 33.952 5.87213 33.184C4.08013 32.384 2.67213 31.264 1.64813 29.824C0.624125 28.384 0.112125 26.704 0.112125 24.784H5.96813C6.09613 26.224 6.65613 27.408 7.64813 28.336C8.67213 29.264 10.0961 29.728 11.9201 29.728C13.8081 29.728 15.2801 29.28 16.3361 28.384C17.3921 27.456 17.9201 26.272 17.9201 24.832C17.9201 23.712 17.5841 22.8 16.9121 22.096C16.2721 21.392 15.4561 20.848 14.4641 20.464C13.5041 20.08 12.1601 19.664 10.4321 19.216C8.25613 18.64 6.48013 18.064 5.10413 17.488C3.76013 16.88 2.60813 15.952 1.64813 14.704C0.688125 13.456 0.208125 11.792 0.208125 9.712C0.208125 7.792 0.688125 6.112 1.64813 4.672C2.60813 3.232 3.95213 2.128 5.68013 1.36C7.40813 0.591998 9.40813 0.207997 11.6801 0.207997C14.9121 0.207997 17.5521 1.024 19.6001 2.656C21.6801 4.256 22.8321 6.464 23.0561 9.28H17.0081C16.9121 8.064 16.3361 7.024 15.2801 6.16C14.2241 5.296 12.8321 4.864 11.1041 4.864C9.53613 4.864 8.25613 5.264 7.26413 6.064C6.27213 6.864 5.77613 8.016 5.77613 9.52C5.77613 10.544 6.08013 11.392 6.68813 12.064C7.32813 12.704 8.12813 13.216 9.08813 13.6C10.0481 13.984 11.3601 14.4 13.0241 14.848C15.2321 15.456 17.0241 16.064 18.4001 16.672C19.8081 17.28 20.9921 18.224 21.9521 19.504C22.9441 20.752 23.4401 22.432 23.4401 24.544C23.4401 26.24 22.9761 27.84 22.0481 29.344C21.1521 30.848 19.8241 32.064 18.0641 32.992C16.3361 33.888 14.2881 34.336 11.9201 34.336Z" fill="white"/>
<path d="M48.2809 34L35.3689 19.072V34H29.8969V0.639997H35.3689V15.856L48.3289 0.639997H55.1929L40.6969 17.344L55.4329 34H48.2809Z" fill="#D6C158"/>
</svg>
